<svg width="923" height="263" viewBox="0 0 923 263" fill="none" xmlns="http://www.w3.org/2000/svg">
<g clip-path="url(#clip0_27_1518)">
<path d="M285.651 169.686C285.651 219.905 326.651 260.763 377.048 260.763H468.055V78.6089H377.048C326.651 78.6089 285.651 119.466 285.651 169.686ZM312.391 169.686C312.391 133.173 341.735 103.458 377.808 103.458C413.881 103.458 443.225 133.173 443.225 169.686C443.225 206.199 413.881 235.914 377.808 235.914C341.735 235.914 312.391 206.199 312.391 169.686Z" fill="#2B3442"/>
<path d="M565.529 57.9304C565.855 38.3162 579.897 24.0888 598.889 24.0888H626.562V0H599.279C564.943 0 540.005 25.7396 540.005 61.232C540.005 68.3565 540.113 74.8512 540.178 78.6089H504.214V103.458H539.94V260.763H565.529V103.436H615.449V78.5872H565.507C565.464 73.6348 565.42 64.1209 565.529 57.9087V57.9304Z" fill="#2B3442"/>
<path d="M807.229 167.318C806.057 114.557 769.073 74.786 721.193 74.786H720.433C695.321 74.786 672.249 84.1261 655.428 101.069C638.477 118.163 629.231 141.861 629.427 167.796C629.839 224.271 671.707 260.763 736.082 260.763H772.437V235.914H737.232C690.937 235.914 661.896 215.105 656.948 178.657H807.25V167.318H807.229ZM657.447 153.047C663.112 120.922 688.007 99.6133 720.433 99.6133H721.193C749.582 99.6133 772.958 121.4 779.143 153.047H657.447Z" fill="#2B3442"/>
<path d="M839.872 78.6089V260.763H865.462V103.436H923V78.6089H839.872Z" fill="#2B3442"/>
<path d="M194.992 237.087L152.451 109.605C152.278 109.062 152.083 108.541 151.887 108.019L151.084 105.912H119.005L118.224 108.019C118.028 108.519 117.855 109.04 117.659 109.583L75.4878 236.283L27.7816 78.6089H0L55.064 259.981C55.1291 260.176 55.1725 260.35 55.2376 260.524L56.0407 263.022H93.7629L134.871 139.732L175.979 263.022H213.701L269.742 78.6089H242.72L194.992 237.087Z" fill="#2B3442"/>
</g>
<defs>
<clipPath id="clip0_27_1518">
<rect width="923" height="263" fill="white"/>
</clipPath>
</defs>
</svg>
